<?xml version="1.0" encoding="utf-8"?>

<!DOCTYPE svg PUBLIC "-//W3C//DTD SVG 1.1//EN" "http://www.w3.org/Graphics/SVG/1.1/DTD/svg11.dtd">
<!-- Uploaded to: SVG Repo, www.svgrepo.com, Generator: SVG Repo Mixer Tools -->
<svg height="800px" width="800px" version="1.1" id="_x32_" xmlns="http://www.w3.org/2000/svg" xmlns:xlink="http://www.w3.org/1999/xlink" 
	 viewBox="0 0 512 512"  xml:space="preserve">
<style type="text/css">
	.st0{fill:#000000;}
</style>
<g>
	<path class="st0" d="M132.892,412.263h96.797v-36.545c0-14.53,11.787-26.31,26.318-26.31c14.531,0,26.303,11.779,26.303,26.31
		v36.545h96.812V291.256h-246.23V412.263z"/>
	<polygon class="st0" points="361.817,261.181 350.511,261.181 350.511,244.679 333.19,244.679 333.19,261.181 321.899,261.181 
		321.899,244.679 304.578,244.679 304.578,261.181 293.272,261.181 293.272,244.679 275.967,244.679 275.967,261.181 
		264.66,261.181 264.66,244.679 247.355,244.679 247.355,261.181 236.048,261.181 236.048,244.679 218.728,244.679 218.728,261.181 
		207.436,261.181 207.436,244.679 190.116,244.679 190.116,261.181 178.81,261.181 178.81,244.679 161.504,244.679 161.504,261.181 
		150.197,261.181 150.197,244.679 132.892,244.679 132.892,261.181 132.892,282.018 379.122,282.018 379.122,244.679 
		361.817,244.679 	"/>
	<polygon class="st0" points="114.462,196.789 103.156,196.789 103.156,180.294 85.851,180.294 85.851,196.789 74.544,196.789 
		74.544,180.294 57.239,180.294 57.239,196.789 45.932,196.789 45.932,180.294 28.612,180.294 28.612,196.789 17.32,196.789 
		17.32,180.294 0,180.294 0,217.626 131.783,217.626 131.783,180.294 114.462,180.294 	"/>
	<path class="st0" d="M9.252,412.263H122.53V227.171H9.252V412.263z M55.154,267.135h21.459v38.156H55.154V267.135z"/>
	<polygon class="st0" points="494.695,180.294 494.695,196.789 483.388,196.789 483.388,180.294 466.083,180.294 466.083,196.789 
		454.776,196.789 454.776,180.294 437.456,180.294 437.456,196.789 426.164,196.789 426.164,180.294 408.844,180.294 
		408.844,196.789 397.538,196.789 397.538,180.294 380.232,180.294 380.232,217.626 512,217.626 512,180.294 	"/>
	<path class="st0" d="M389.484,412.263h113.263V227.171H389.484V412.263z M435.387,267.135h21.459v38.156h-21.459V267.135z"/>
	<path class="st0" d="M67.084,131.386c13.466-2.422,21.159,4.319,31.281,2.272c11.652-2.37,20.53-17.755,19.975-20.124
		c-0.555-2.354-8.323,7.108-27.187-4.724c-10.542-6.614-18.804-8.038-24.068-8.023v-1.05h-7.273v74.829h7.273V131.386z"/>
	<path class="st0" d="M446.716,131.386c13.452-2.422,21.144,4.319,31.266,2.272c11.666-2.37,20.544-17.755,19.989-20.124
		c-0.554-2.354-8.323,7.108-27.202-4.724c-10.542-6.614-18.79-8.038-24.054-8.023v-1.05h-7.288v74.829h7.288V131.386z"/>
	<path class="st0" d="M256.69,196.647c13.452-2.422,21.144,4.318,31.266,2.272c11.666-2.369,20.544-17.755,19.989-20.124
		c-0.554-2.354-8.323,7.108-27.202-4.723c-10.542-6.614-18.79-8.038-24.054-8.023v-1.05h-7.288v74.829h7.288V196.647z"/>
</g>
</svg>