<svg xmlns="http://www.w3.org/2000/svg" viewBox="0 0 100 125" x="0px" y="0px"><title>Artboard 1 copy 4</title><g data-name="Layer 2"><path d="M88.31,75.39a45.65,45.65,0,0,0,0-50.15V17.56H82a45.68,45.68,0,0,0-63.91,0H11.78v7.61a45.66,45.66,0,0,0,0,50.3V96.08H48.9l1.12,0,1.12,0H88.31Zm5.5-25.07a43.51,43.51,0,0,1-5.5,21.22V29.1A43.51,43.51,0,0,1,93.81,50.32Zm-43-20.63a5.23,5.23,0,0,0,.34-10.13H80.93L51.15,32.19a3.33,3.33,0,0,1-2.61,0L18.9,19.56H48.23a5.23,5.23,0,0,0,2.62,10.13Zm35.46,4.18H61.51l18.87-9.53a3.64,3.64,0,0,0,2.21-3.25,44.09,44.09,0,0,1,3.72,4.75ZM19.94,24.54l18.27,9.32H13.78v-8.1a44.1,44.1,0,0,1,4-5A3.64,3.64,0,0,0,19.94,24.54Zm-6.16,12a3.63,3.63,0,0,0,3,1.52L41.1,39.73a1.92,1.92,0,0,1,1.78,1.76l.79,9.89a3.33,3.33,0,0,1-.41,1.88L27,82.56a4.73,4.73,0,0,0,.25,5.17A44.14,44.14,0,0,1,13.78,74.87ZM43,68.27l.8,21.22A4.72,4.72,0,0,0,47.14,94a43.47,43.47,0,0,1-17.6-5Zm6.22,25.81.4-33.6h.36l.4,29A4.72,4.72,0,0,0,53.55,94q-1.2.1-2.42.13Zm7.38-26L67.86,85.28a4.72,4.72,0,0,0,5.4,2.13,43.49,43.49,0,0,1-17.51,6.32ZM74.81,86.39,56.25,53.11a3.33,3.33,0,0,1-.41-1.89l.79-9.73a1.92,1.92,0,0,1,1.78-1.76L83.13,38a3.63,3.63,0,0,0,3.18-1.9V74.8A44.15,44.15,0,0,1,74.81,86.39Zm11.5-64c-.76-1-1.56-2-2.39-2.88h2.39ZM50,6.52a43.61,43.61,0,0,1,29,11H21A43.61,43.61,0,0,1,50,6.52Zm-36.24,13h2.35c-.82.9-1.6,1.85-2.35,2.82ZM6.22,50.32A43.51,43.51,0,0,1,11.78,29V71.62A43.51,43.51,0,0,1,6.22,50.32Zm7.55,43.77V78.26A45.94,45.94,0,0,0,36.53,94.08Zm49.73,0A46,46,0,0,0,86.31,78.2V94.08Z"/></g><text x="0" y="115" fill="#000000" font-size="5px" font-weight="bold" font-family="'Helvetica Neue', Helvetica, Arial-Unicode, Arial, Sans-serif">Created by Eliricon</text><text x="0" y="120" fill="#000000" font-size="5px" font-weight="bold" font-family="'Helvetica Neue', Helvetica, Arial-Unicode, Arial, Sans-serif">from the Noun Project</text></svg>